<svg width="22" height="22" viewBox="0 0 22 22" fill="none" xmlns="http://www.w3.org/2000/svg">
<g id="adjust">
<mask id="mask0_432_221" style="mask-type:alpha" maskUnits="userSpaceOnUse" x="0" y="0" width="22" height="22">
<rect id="Bounding box" width="22" height="22" fill="#D9D9D9"/>
</mask>
<g mask="url(#mask0_432_221)">
<path id="adjust_2" d="M11 13.7507C11.7639 13.7507 12.4132 13.4833 12.9479 12.9486C13.4826 12.4138 13.75 11.7645 13.75 11.0007C13.75 10.2368 13.4826 9.58746 12.9479 9.05273C12.4132 8.51801 11.7639 8.25065 11 8.25065C10.2361 8.25065 9.58682 8.51801 9.05209 9.05273C8.51737 9.58746 8.25001 10.2368 8.25001 11.0007C8.25001 11.7645 8.51737 12.4138 9.05209 12.9486C9.58682 13.4833 10.2361 13.7507 11 13.7507ZM11 20.1673C9.73195 20.1673 8.54029 19.9267 7.42501 19.4454C6.30973 18.9642 5.33959 18.3111 4.51459 17.4861C3.68959 16.6611 3.03647 15.6909 2.55522 14.5757C2.07397 13.4604 1.83334 12.2687 1.83334 11.0007C1.83334 9.7326 2.07397 8.54093 2.55522 7.42565C3.03647 6.31037 3.68959 5.34023 4.51459 4.51523C5.33959 3.69023 6.30973 3.03711 7.42501 2.55586C8.54029 2.07461 9.73195 1.83398 11 1.83398C12.2681 1.83398 13.4597 2.07461 14.575 2.55586C15.6903 3.03711 16.6604 3.69023 17.4854 4.51523C18.3104 5.34023 18.9636 6.31037 19.4448 7.42565C19.9261 8.54093 20.1667 9.7326 20.1667 11.0007C20.1667 12.2687 19.9261 13.4604 19.4448 14.5757C18.9636 15.6909 18.3104 16.6611 17.4854 17.4861C16.6604 18.3111 15.6903 18.9642 14.575 19.4454C13.4597 19.9267 12.2681 20.1673 11 20.1673ZM11 18.334C13.0472 18.334 14.7813 17.6236 16.2021 16.2027C17.6229 14.7819 18.3333 13.0479 18.3333 11.0007C18.3333 8.95343 17.6229 7.2194 16.2021 5.79857C14.7813 4.37773 13.0472 3.66732 11 3.66732C8.95279 3.66732 7.21876 4.37773 5.79793 5.79857C4.37709 7.2194 3.66668 8.95343 3.66668 11.0007C3.66668 13.0479 4.37709 14.7819 5.79793 16.2027C7.21876 17.6236 8.95279 18.334 11 18.334Z" fill="#1C1B1F"/>
</g>
</g>
</svg>
