<svg width="23" height="23" viewBox="0 0 23 23" fill="none" xmlns="http://www.w3.org/2000/svg">
<g id="album">
<mask id="mask0_432_215" style="mask-type:alpha" maskUnits="userSpaceOnUse" x="0" y="0" width="23" height="23">
<rect id="Bounding box" x="0.94957" y="0.484375" width="22" height="22" fill="#D9D9D9"/>
</mask>
<g mask="url(#mask0_432_215)">
<path id="album_2" d="M11.9496 15.61C13.0954 15.61 14.0694 15.209 14.8714 14.4069C15.6735 13.6048 16.0746 12.6309 16.0746 11.485C16.0746 10.3392 15.6735 9.36523 14.8714 8.56315C14.0694 7.76107 13.0954 7.36003 11.9496 7.36003C10.8037 7.36003 9.82977 7.76107 9.02769 8.56315C8.22561 9.36523 7.82456 10.3392 7.82456 11.485C7.82456 12.6309 8.22561 13.6048 9.02769 14.4069C9.82977 15.209 10.8037 15.61 11.9496 15.61ZM11.9496 12.4017C11.6898 12.4017 11.4721 12.3138 11.2964 12.1382C11.1207 11.9625 11.0329 11.7447 11.0329 11.485C11.0329 11.2253 11.1207 11.0076 11.2964 10.8319C11.4721 10.6562 11.6898 10.5684 11.9496 10.5684C12.2093 10.5684 12.427 10.6562 12.6027 10.8319C12.7784 11.0076 12.8662 11.2253 12.8662 11.485C12.8662 11.7447 12.7784 11.9625 12.6027 12.1382C12.427 12.3138 12.2093 12.4017 11.9496 12.4017ZM11.9496 20.6517C10.6815 20.6517 9.48984 20.4111 8.37456 19.9298C7.25929 19.4486 6.28915 18.7954 5.46415 17.9704C4.63915 17.1454 3.98602 16.1753 3.50477 15.06C3.02352 13.9447 2.7829 12.7531 2.7829 11.485C2.7829 10.217 3.02352 9.0253 3.50477 7.91003C3.98602 6.79475 4.63915 5.82461 5.46415 4.99961C6.28915 4.17461 7.25929 3.52148 8.37456 3.04023C9.48984 2.55898 10.6815 2.31836 11.9496 2.31836C13.2176 2.31836 14.4093 2.55898 15.5246 3.04023C16.6398 3.52148 17.61 4.17461 18.435 4.99961C19.26 5.82461 19.9131 6.79475 20.3944 7.91003C20.8756 9.0253 21.1162 10.217 21.1162 11.485C21.1162 12.7531 20.8756 13.9447 20.3944 15.06C19.9131 16.1753 19.26 17.1454 18.435 17.9704C17.61 18.7954 16.6398 19.4486 15.5246 19.9298C14.4093 20.4111 13.2176 20.6517 11.9496 20.6517ZM11.9496 18.8184C13.9968 18.8184 15.7308 18.1079 17.1516 16.6871C18.5725 15.2663 19.2829 13.5322 19.2829 11.485C19.2829 9.4378 18.5725 7.70378 17.1516 6.28294C15.7308 4.86211 13.9968 4.15169 11.9496 4.15169C9.90234 4.15169 8.16832 4.86211 6.74748 6.28294C5.32665 7.70378 4.61623 9.4378 4.61623 11.485C4.61623 13.5322 5.32665 15.2663 6.74748 16.6871C8.16832 18.1079 9.90234 18.8184 11.9496 18.8184Z" fill="#1C1B1F"/>
</g>
</g>
</svg>
