<svg width="22" height="23" viewBox="0 0 22 23" fill="none" xmlns="http://www.w3.org/2000/svg">
<g id="calendar_today">
<mask id="mask0_388_2107" style="mask-type:alpha" maskUnits="userSpaceOnUse" x="0" y="0" width="22" height="23">
<rect id="Bounding box" y="0.5" width="22" height="22" fill="#D9D9D9"/>
</mask>
<g mask="url(#mask0_388_2107)">
<path id="calendar_today_2" d="M4.83333 19.3333C4.32917 19.3333 3.89757 19.1538 3.53854 18.7948C3.17951 18.4358 3 18.0042 3 17.5V4.66667C3 4.1625 3.17951 3.7309 3.53854 3.37188C3.89757 3.01285 4.32917 2.83333 4.83333 2.83333H5.75V1H7.58333V2.83333H14.9167V1H16.75V2.83333H17.6667C18.1708 2.83333 18.6024 3.01285 18.9615 3.37188C19.3205 3.7309 19.5 4.1625 19.5 4.66667V17.5C19.5 18.0042 19.3205 18.4358 18.9615 18.7948C18.6024 19.1538 18.1708 19.3333 17.6667 19.3333H4.83333ZM4.83333 17.5H17.6667V8.33333H4.83333V17.5ZM4.83333 6.5H17.6667V4.66667H4.83333V6.5Z" fill="black"/>
</g>
</g>
</svg>
