<svg width="18" height="20" viewBox="0 0 18 20" fill="none" xmlns="http://www.w3.org/2000/svg">
<path d="M2.41667 19.1667C1.88958 19.1667 1.43837 18.979 1.06302 18.6036C0.687674 18.2283 0.5 17.7771 0.5 17.25V3.83333C0.5 3.30625 0.687674 2.85503 1.06302 2.47969C1.43837 2.10434 1.88958 1.91667 2.41667 1.91667H3.375V0.958333C3.375 0.686806 3.46684 0.459201 3.65052 0.275521C3.8342 0.0918403 4.06181 0 4.33333 0C4.60486 0 4.83247 0.0918403 5.01615 0.275521C5.19983 0.459201 5.29167 0.686806 5.29167 0.958333V1.91667H12.9583V0.958333C12.9583 0.686806 13.0502 0.459201 13.2339 0.275521C13.4175 0.0918403 13.6451 0 13.9167 0C14.1882 0 14.4158 0.0918403 14.5995 0.275521C14.7832 0.459201 14.875 0.686806 14.875 0.958333V1.91667H15.8333C16.3604 1.91667 16.8116 2.10434 17.187 2.47969C17.5623 2.85503 17.75 3.30625 17.75 3.83333V17.25C17.75 17.7771 17.5623 18.2283 17.187 18.6036C16.8116 18.979 16.3604 19.1667 15.8333 19.1667H2.41667ZM2.41667 17.25H15.8333V7.66667H2.41667V17.25Z" fill="white"/>
</svg>
