<svg width="22" height="22" viewBox="0 0 22 22" fill="none" xmlns="http://www.w3.org/2000/svg">
<mask id="mask0_433_227" style="mask-type:alpha" maskUnits="userSpaceOnUse" x="0" y="0" width="22" height="22">
<rect width="22" height="22" fill="#D9D9D9"/>
</mask>
<g mask="url(#mask0_433_227)">
<path d="M4.58333 20.1673C4.07917 20.1673 3.64757 19.9878 3.28854 19.6288C2.92951 19.2697 2.75 18.8382 2.75 18.334V5.50065C2.75 4.99648 2.92951 4.56489 3.28854 4.20586C3.64757 3.84683 4.07917 3.66732 4.58333 3.66732H5.5V1.83398H7.33333V3.66732H14.6667V1.83398H16.5V3.66732H17.4167C17.9208 3.66732 18.3524 3.84683 18.7115 4.20586C19.0705 4.56489 19.25 4.99648 19.25 5.50065V18.334C19.25 18.8382 19.0705 19.2697 18.7115 19.6288C18.3524 19.9878 17.9208 20.1673 17.4167 20.1673H4.58333ZM4.58333 18.334H17.4167V9.16732H4.58333V18.334ZM4.58333 7.33398H17.4167V5.50065H4.58333V7.33398Z" fill="white"/>
</g>
</svg>
