<svg width="22" height="23" viewBox="0 0 22 23" fill="none" xmlns="http://www.w3.org/2000/svg">
<g id="call">
<mask id="mask0_388_2117" style="mask-type:alpha" maskUnits="userSpaceOnUse" x="0" y="0" width="22" height="23">
<rect id="Bounding box" y="0.5" width="22" height="22" fill="#D9D9D9"/>
</mask>
<g mask="url(#mask0_388_2117)">
<path id="call_2" d="M18.2875 19.75C16.3778 19.75 14.491 19.3337 12.6271 18.501C10.7632 17.6684 9.06736 16.4882 7.53958 14.9604C6.01181 13.4326 4.8316 11.7368 3.99896 9.87292C3.16632 8.00903 2.75 6.12222 2.75 4.2125C2.75 3.9375 2.84167 3.70833 3.025 3.525C3.20833 3.34167 3.4375 3.25 3.7125 3.25H7.425C7.63889 3.25 7.82986 3.32257 7.99792 3.46771C8.16597 3.61285 8.26528 3.78472 8.29583 3.98333L8.89167 7.19167C8.92222 7.43611 8.91458 7.64236 8.86875 7.81042C8.82292 7.97847 8.73889 8.12361 8.61667 8.24583L6.39375 10.4917C6.69931 11.0569 7.06215 11.6031 7.48229 12.1302C7.90243 12.6573 8.36458 13.1653 8.86875 13.6542C9.34236 14.1278 9.83889 14.567 10.3583 14.9719C10.8778 15.3767 11.4278 15.7472 12.0083 16.0833L14.1625 13.9292C14.3 13.7917 14.4795 13.6885 14.701 13.6198C14.9226 13.551 15.1403 13.5319 15.3542 13.5625L18.5167 14.2042C18.7306 14.2653 18.9062 14.376 19.0438 14.5365C19.1812 14.6969 19.25 14.8764 19.25 15.075V18.7875C19.25 19.0625 19.1583 19.2917 18.975 19.475C18.7917 19.6583 18.5625 19.75 18.2875 19.75ZM5.52292 8.75L7.03542 7.2375L6.64583 5.08333H4.60625C4.68264 5.70972 4.78958 6.32847 4.92708 6.93958C5.06458 7.55069 5.26319 8.15417 5.52292 8.75ZM13.7271 16.9542C14.3229 17.2139 14.9302 17.4201 15.549 17.5729C16.1677 17.7257 16.7903 17.825 17.4167 17.8708V15.8542L15.2625 15.4188L13.7271 16.9542Z" fill="#1C1B1F"/>
</g>
</g>
</svg>
