<svg width="12" height="12" viewBox="0 0 12 12" fill="none" xmlns="http://www.w3.org/2000/svg">
<g id="call">
<mask id="mask0_388_2062" style="mask-type:alpha" maskUnits="userSpaceOnUse" x="0" y="0" width="12" height="12">
<rect id="Bounding box" width="12" height="12" fill="#D9D9D9"/>
</mask>
<g mask="url(#mask0_388_2062)">
<path id="call_2" d="M9.975 10.5C8.93333 10.5 7.90417 10.2729 6.8875 9.81875C5.87083 9.36458 4.94583 8.72083 4.1125 7.8875C3.27917 7.05417 2.63542 6.12917 2.18125 5.1125C1.72708 4.09583 1.5 3.06667 1.5 2.025C1.5 1.875 1.55 1.75 1.65 1.65C1.75 1.55 1.875 1.5 2.025 1.5H4.05C4.16667 1.5 4.27083 1.53958 4.3625 1.61875C4.45417 1.69792 4.50833 1.79167 4.525 1.9L4.85 3.65C4.86667 3.78333 4.8625 3.89583 4.8375 3.9875C4.8125 4.07917 4.76667 4.15833 4.7 4.225L3.4875 5.45C3.65417 5.75833 3.85208 6.05625 4.08125 6.34375C4.31042 6.63125 4.5625 6.90833 4.8375 7.175C5.09583 7.43333 5.36667 7.67292 5.65 7.89375C5.93333 8.11458 6.23333 8.31667 6.55 8.5L7.725 7.325C7.8 7.25 7.89792 7.19375 8.01875 7.15625C8.13958 7.11875 8.25833 7.10833 8.375 7.125L10.1 7.475C10.2167 7.50833 10.3125 7.56875 10.3875 7.65625C10.4625 7.74375 10.5 7.84167 10.5 7.95V9.975C10.5 10.125 10.45 10.25 10.35 10.35C10.25 10.45 10.125 10.5 9.975 10.5ZM3.0125 4.5L3.8375 3.675L3.625 2.5H2.5125C2.55417 2.84167 2.6125 3.17917 2.6875 3.5125C2.7625 3.84583 2.87083 4.175 3.0125 4.5ZM7.4875 8.975C7.8125 9.11667 8.14375 9.22917 8.48125 9.3125C8.81875 9.39583 9.15833 9.45 9.5 9.475V8.375L8.325 8.1375L7.4875 8.975Z" fill="#1C1B1F"/>
</g>
</g>
</svg>
