<svg width="22" height="22" viewBox="0 0 22 22" fill="none" xmlns="http://www.w3.org/2000/svg">
<g id="directions_subway">
<mask id="mask0_392_525" style="mask-type:alpha" maskUnits="userSpaceOnUse" x="0" y="0" width="22" height="22">
<rect id="Bounding box" width="22" height="22" fill="#D9D9D9"/>
</mask>
<g mask="url(#mask0_392_525)">
<path id="directions_subway_2" d="M5.49999 19.2507V18.334L6.87499 17.4173C5.9736 17.4173 5.21353 17.1079 4.59478 16.4892C3.97603 15.8704 3.66666 15.1104 3.66666 14.209V5.50065C3.66666 4.2326 4.25485 3.30447 5.43124 2.71628C6.60763 2.12808 8.46388 1.83398 11 1.83398C13.6278 1.83398 15.5069 2.11662 16.6375 2.6819C17.768 3.24718 18.3333 4.18676 18.3333 5.50065V14.209C18.3333 15.1104 18.0239 15.8704 17.4052 16.4892C16.7864 17.1079 16.0264 17.4173 15.125 17.4173L16.5 18.334V19.2507H5.49999ZM5.49999 9.16732H10.0833V6.41732H5.49999V9.16732ZM11.9167 9.16732H16.5V6.41732H11.9167V9.16732ZM7.79166 14.6673C8.1736 14.6673 8.49825 14.5336 8.76561 14.2663C9.03298 13.9989 9.16666 13.6743 9.16666 13.2923C9.16666 12.9104 9.03298 12.5857 8.76561 12.3184C8.49825 12.051 8.1736 11.9173 7.79166 11.9173C7.40971 11.9173 7.08506 12.051 6.8177 12.3184C6.55034 12.5857 6.41666 12.9104 6.41666 13.2923C6.41666 13.6743 6.55034 13.9989 6.8177 14.2663C7.08506 14.5336 7.40971 14.6673 7.79166 14.6673ZM14.2083 14.6673C14.5903 14.6673 14.9149 14.5336 15.1823 14.2663C15.4496 13.9989 15.5833 13.6743 15.5833 13.2923C15.5833 12.9104 15.4496 12.5857 15.1823 12.3184C14.9149 12.051 14.5903 11.9173 14.2083 11.9173C13.8264 11.9173 13.5017 12.051 13.2344 12.3184C12.967 12.5857 12.8333 12.9104 12.8333 13.2923C12.8333 13.6743 12.967 13.9989 13.2344 14.2663C13.5017 14.5336 13.8264 14.6673 14.2083 14.6673ZM6.87499 15.584H15.125C15.5222 15.584 15.8507 15.4541 16.1104 15.1944C16.3701 14.9347 16.5 14.6062 16.5 14.209V11.0007H5.49999V14.209C5.49999 14.6062 5.62985 14.9347 5.88957 15.1944C6.1493 15.4541 6.47777 15.584 6.87499 15.584ZM11 3.66732C9.6861 3.66732 8.59756 3.74371 7.73436 3.89648C6.87117 4.04926 6.26388 4.27843 5.91249 4.58398H16.1792C15.9042 4.27843 15.3351 4.04926 14.4719 3.89648C13.6087 3.74371 12.4514 3.66732 11 3.66732Z" fill="#1C1B1F"/>
</g>
</g>
</svg>
