<svg width="22" height="22" viewBox="0 0 22 22" fill="none" xmlns="http://www.w3.org/2000/svg">
<g id="forum">
<mask id="mask0_388_2137" style="mask-type:alpha" maskUnits="userSpaceOnUse" x="0" y="0" width="22" height="22">
<rect id="Bounding box" width="22" height="22" fill="#D9D9D9"/>
</mask>
<g mask="url(#mask0_388_2137)">
<path id="forum_2" d="M19.25 18.884C19.1278 18.884 19.0132 18.8611 18.9063 18.8152C18.7993 18.7694 18.7 18.7007 18.6083 18.609L16.5 16.5007H7.33334C6.82918 16.5007 6.39758 16.3211 6.03855 15.9621C5.67952 15.6031 5.50001 15.1715 5.50001 14.6673V13.7507H15.5833C16.0875 13.7507 16.5191 13.5711 16.8781 13.2121C17.2372 12.8531 17.4167 12.4215 17.4167 11.9173V5.50065H18.3333C18.8375 5.50065 19.2691 5.68017 19.6281 6.03919C19.9872 6.39822 20.1667 6.82982 20.1667 7.33398V17.9444C20.1667 18.2194 20.075 18.4447 19.8917 18.6204C19.7083 18.7961 19.4945 18.884 19.25 18.884ZM3.66668 11.1611L4.74376 10.084H13.75V3.66732H3.66668V11.1611ZM2.75001 14.3007C2.50557 14.3007 2.29168 14.2128 2.10834 14.0371C1.92501 13.8614 1.83334 13.6361 1.83334 13.3611V3.66732C1.83334 3.16315 2.01286 2.73155 2.37189 2.37253C2.73091 2.0135 3.16251 1.83398 3.66668 1.83398H13.75C14.2542 1.83398 14.6858 2.0135 15.0448 2.37253C15.4038 2.73155 15.5833 3.16315 15.5833 3.66732V10.084C15.5833 10.5882 15.4038 11.0197 15.0448 11.3788C14.6858 11.7378 14.2542 11.9173 13.75 11.9173H5.50001L3.39168 14.0257C3.30001 14.1173 3.2007 14.1861 3.09376 14.2319C2.98682 14.2777 2.87223 14.3007 2.75001 14.3007Z" fill="#1C1B1F"/>
</g>
</g>
</svg>
