<svg width="22" height="22" viewBox="0 0 22 22" fill="none" xmlns="http://www.w3.org/2000/svg">
<g id="location_on">
<mask id="mask0_392_521" style="mask-type:alpha" maskUnits="userSpaceOnUse" x="0" y="0" width="22" height="22">
<rect id="Bounding box" width="22" height="22" fill="#D9D9D9"/>
</mask>
<g mask="url(#mask0_392_521)">
<path id="location_on_2" d="M11 11.0007C11.5042 11.0007 11.9358 10.8211 12.2948 10.4621C12.6538 10.1031 12.8333 9.67148 12.8333 9.16732C12.8333 8.66315 12.6538 8.23155 12.2948 7.87253C11.9358 7.5135 11.5042 7.33398 11 7.33398C10.4958 7.33398 10.0642 7.5135 9.7052 7.87253C9.34617 8.23155 9.16666 8.66315 9.16666 9.16732C9.16666 9.67148 9.34617 10.1031 9.7052 10.4621C10.0642 10.8211 10.4958 11.0007 11 11.0007ZM11 17.7382C12.8639 16.027 14.2465 14.4725 15.1479 13.0746C16.0493 11.6767 16.5 10.4354 16.5 9.35065C16.5 7.68537 15.9691 6.32183 14.9073 5.26003C13.8455 4.19822 12.543 3.66732 11 3.66732C9.45693 3.66732 8.1545 4.19822 7.0927 5.26003C6.03089 6.32183 5.49999 7.68537 5.49999 9.35065C5.49999 10.4354 5.95068 11.6767 6.85207 13.0746C7.75346 14.4725 9.1361 16.027 11 17.7382ZM11 20.1673C8.54027 18.0743 6.70311 16.1302 5.48853 14.335C4.27395 12.5399 3.66666 10.8784 3.66666 9.35065C3.66666 7.05898 4.40381 5.23329 5.87811 3.87357C7.35242 2.51385 9.05971 1.83398 11 1.83398C12.9403 1.83398 14.6476 2.51385 16.1219 3.87357C17.5962 5.23329 18.3333 7.05898 18.3333 9.35065C18.3333 10.8784 17.726 12.5399 16.5114 14.335C15.2969 16.1302 13.4597 18.0743 11 20.1673Z" fill="#1C1B1F"/>
</g>
</g>
</svg>
