<svg width="38" height="24" viewBox="0 0 38 24" fill="none" xmlns="http://www.w3.org/2000/svg">
<g clip-path="url(#clip0_388_2026)">
<path fill-rule="evenodd" clip-rule="evenodd" d="M3.05408 7.06606C3.05408 4.44474 3.95298 3.37468 4.47609 3.12847C4.77792 2.98639 5.65724 2.86983 6.781 4.45375L14.1774 20.9369L14.2193 21.0303L14.2746 21.117C15.359 22.8164 17.0255 23.9542 18.7858 23.8984L16.9253 19.8489C16.8942 19.8048 16.863 19.7592 16.8318 19.712L9.42589 3.20751L9.37447 3.09292L9.30309 2.98876C7.79614 0.78997 5.45905 -0.490219 3.18658 0.579387C1.12923 1.54775 0.113602 4.06861 0.113602 7.06606V16.4393V22.3022V23.7204H1.58384H3.2408H4.71108L4.71104 22.302C4.71104 21.962 4.6123 21.6736 4.54386 21.4999C4.47023 21.3132 4.37655 21.1273 4.29675 20.9734C4.2575 20.8978 4.21826 20.8233 4.17892 20.7487C4.04332 20.4915 3.90641 20.2318 3.76319 19.9102C3.41245 19.1227 3.05408 18.0167 3.05408 16.4393V7.06606ZM20.466 14.894L23.4065 13.637V0.654935H20.466V14.894ZM1.80127 22.5245C1.80111 22.5245 1.79973 22.5208 1.79764 22.5138C1.8004 22.5212 1.80144 22.5247 1.80127 22.5245Z" fill="#0E1E7D"/>
<path d="M22.6912 23.5086H23.0305V23.1813V13.9358H29.7232C32.139 13.9358 34.0118 13.2196 35.3271 12.2204C36.7112 11.1767 37.6607 9.32825 37.6607 7.57494C37.6607 6.76317 37.4341 5.75096 37.0566 4.81481C36.6806 3.8823 36.1371 2.98094 35.471 2.42087L35.4705 2.42054C34.82 1.87527 33.9989 1.20695 33.0374 0.933462C32.1159 0.67138 30.9962 0.544922 29.6861 0.544922H21.0357H20.6964V0.872195V23.1813V23.5086H21.0357H22.6912ZM33.7313 10.6876L33.7311 10.6878C32.7531 11.4588 31.4382 12.0492 29.7791 12.0492H23.0305V2.43108H29.5188C31.4816 2.43108 32.8969 3.00815 33.7847 3.71547C34.1731 4.02972 34.5544 4.67201 34.8403 5.43202C35.1231 6.18329 35.2893 6.98711 35.2893 7.57494C35.2893 8.67405 34.611 9.99558 33.7313 10.6876Z" fill="#0E1E7D" stroke="#0E1E7D"/>
</g>
<defs>
<clipPath id="clip0_388_2026">
<rect width="38" height="24" fill="white"/>
</clipPath>
</defs>
</svg>
