<svg width="41" height="26" viewBox="0 0 41 26" fill="none" xmlns="http://www.w3.org/2000/svg">
<g id="Frame" clip-path="url(#clip0_392_1300)">
<path id="Vector" fill-rule="evenodd" clip-rule="evenodd" d="M3.29518 7.62411C3.29518 4.79584 4.26505 3.64131 4.82946 3.37566C5.15511 3.22236 6.10385 3.09661 7.31632 4.80556L15.2966 22.59L15.3419 22.6908L15.4015 22.7843C16.5716 24.6179 18.3696 25.8456 20.2689 25.7853L18.2615 21.4162C18.2279 21.3686 18.1943 21.3193 18.1606 21.2684L10.17 3.46094L10.1145 3.33731L10.0375 3.22493C8.41161 0.852541 5.89001 -0.528715 3.43814 0.625334C1.21837 1.67015 0.122559 4.39002 0.122559 7.62411V17.7374V24.0631V25.5932H1.70887H3.49664H5.083L5.08295 24.0628C5.08295 23.6961 4.97642 23.3848 4.90257 23.1975C4.82313 22.996 4.72205 22.7954 4.63595 22.6294C4.59361 22.5478 4.55127 22.4675 4.50883 22.387C4.36252 22.1095 4.2148 21.8293 4.06027 21.4823C3.68185 20.6326 3.29518 19.4393 3.29518 17.7374V7.62411ZM22.0817 16.07L25.2543 14.7138V0.706846H22.0817V16.07ZM1.94347 24.303C1.94329 24.303 1.9418 24.299 1.93955 24.2914C1.94252 24.2994 1.94365 24.3032 1.94347 24.303Z" fill="white"/>
<path id="Vector_2" d="M24.4826 25.3664H24.8487V25.0133V15.0379H32.0698C34.6763 15.0379 36.697 14.2652 38.1161 13.1871C39.6094 12.061 40.634 10.0666 40.634 8.17486C40.634 7.29901 40.3894 6.20688 39.9821 5.19682C39.5765 4.1907 38.9901 3.21818 38.2713 2.61389C37.5695 2.02557 36.6831 1.30413 35.6456 1.00906C34.6514 0.726285 33.4433 0.589844 32.0298 0.589844H22.6965H22.3304V0.942954V25.0133V25.3664H22.6965H24.4826ZM36.3944 11.5333C35.3391 12.3651 33.9202 13.0023 32.1301 13.0023H24.8487V2.62491H31.8492C33.9671 2.62491 35.4941 3.24754 36.452 4.0107C36.871 4.34976 37.2825 5.04275 37.5909 5.86277C37.896 6.67334 38.0754 7.54063 38.0754 8.17486C38.0754 9.36075 37.3435 10.7866 36.3944 11.5333Z" fill="white" stroke="white"/>
</g>
<defs>
<clipPath id="clip0_392_1300">
<rect width="41" height="25.8947" fill="white"/>
</clipPath>
</defs>
</svg>
