<svg width="49" height="32" viewBox="0 0 49 32" fill="none" xmlns="http://www.w3.org/2000/svg">
<g clip-path="url(#clip0_308_2574)">
<path fill-rule="evenodd" clip-rule="evenodd" d="M3.93815 9.42076C3.93815 5.92566 5.09726 4.49893 5.7718 4.17064C6.161 3.9812 7.29486 3.82579 8.74391 5.93768L18.2814 27.9152L18.3354 28.0398L18.4067 28.1553C19.8051 30.4213 21.9539 31.9383 24.2238 31.8639L21.8247 26.4646C21.7846 26.4058 21.7444 26.3449 21.7042 26.282L12.1544 4.27603L12.0881 4.12325L11.9961 3.98437C10.0529 1.05264 7.0393 -0.654276 4.10901 0.771865C1.45611 2.06302 0.146484 5.42416 0.146484 9.42076V21.9184V29.7356V31.6265H2.04232H4.17892H6.07481L6.07476 29.7353C6.07476 29.2821 5.94744 28.8974 5.85918 28.6659C5.76425 28.4169 5.64344 28.1691 5.54054 27.9639C5.48993 27.863 5.43933 27.7638 5.38861 27.6643C5.21376 27.3214 5.03721 26.9751 4.85253 26.5463C4.40027 25.4963 3.93815 24.0217 3.93815 21.9184V9.42076ZM26.3903 19.858L30.182 18.182V0.872595H26.3903V19.858ZM2.32269 30.032C2.32248 30.032 2.3207 30.0271 2.31801 30.0178C2.32156 30.0277 2.32291 30.0323 2.32269 30.032Z" fill="white"/>
<path d="M29.2597 31.3457H29.6972V30.9094V18.5821H38.3273C41.4423 18.5821 43.8573 17.6271 45.5534 16.2948C47.3381 14.9032 48.5625 12.4386 48.5625 10.1009C48.5625 9.01854 48.2702 7.66892 47.7835 6.42072C47.2987 5.17737 46.5978 3.97557 45.7389 3.2288L45.7383 3.22837C44.8995 2.50134 43.8407 1.61024 42.6008 1.24559C41.4126 0.89615 39.9688 0.727539 38.2795 0.727539H27.125H26.6875V1.1639V30.9094V31.3457H27.125H29.2597ZM43.4957 14.2511L43.4954 14.2514C42.2342 15.2794 40.5387 16.0666 38.3994 16.0666H29.6972V3.24242H38.0637C40.5947 3.24242 42.4197 4.01184 43.5645 4.95494C44.0653 5.37394 44.557 6.23032 44.9257 7.24367C45.2903 8.24536 45.5047 9.31713 45.5047 10.1009C45.5047 11.5664 44.63 13.3284 43.4957 14.2511Z" fill="white" stroke="white"/>
</g>
<defs>
<clipPath id="clip0_308_2574">
<rect width="49" height="32" fill="white"/>
</clipPath>
</defs>
</svg>
