<svg width="12" height="12" viewBox="0 0 12 12" fill="none" xmlns="http://www.w3.org/2000/svg">
<g id="mail">
<mask id="mask0_388_2057" style="mask-type:alpha" maskUnits="userSpaceOnUse" x="0" y="0" width="12" height="12">
<rect id="Bounding box" width="12" height="12" fill="#D9D9D9"/>
</mask>
<g mask="url(#mask0_388_2057)">
<path id="mail_2" d="M1.99805 10.002C1.72305 10.002 1.48763 9.90404 1.2918 9.7082C1.09596 9.51237 0.998047 9.27695 0.998047 9.00195V3.00195C0.998047 2.72695 1.09596 2.49154 1.2918 2.2957C1.48763 2.09987 1.72305 2.00195 1.99805 2.00195H9.99805C10.273 2.00195 10.5085 2.09987 10.7043 2.2957C10.9001 2.49154 10.998 2.72695 10.998 3.00195V9.00195C10.998 9.27695 10.9001 9.51237 10.7043 9.7082C10.5085 9.90404 10.273 10.002 9.99805 10.002H1.99805ZM9.99805 4.00195L6.26055 6.33945C6.21888 6.36445 6.17513 6.3832 6.1293 6.3957C6.08346 6.4082 6.03971 6.41445 5.99805 6.41445C5.95638 6.41445 5.91263 6.4082 5.8668 6.3957C5.82096 6.3832 5.77721 6.36445 5.73555 6.33945L1.99805 4.00195V9.00195H9.99805V4.00195ZM5.99805 5.50195L9.99805 3.00195H1.99805L5.99805 5.50195ZM1.99805 4.12695V3.38945V3.40195V3.3957V4.12695Z" fill="#1C1B1F"/>
</g>
</g>
</svg>
